<svg xmlns="http://www.w3.org/2000/svg" viewBox="0 0 229 187">
  <path d="M 90.5 82.9 L 81.9 74.0 L 93.1 62.2 L 118.2 37.1 L 122.5 34.1 L 129.2 31.1 L 142.2 30.4 L 90.5 82.9 Z M 147.5 149.6 L 139.0 149.6 L 131.5 147.6 L 127.2 145.6 L 119.8 139.6 L 82.9 103.2 L 82.6 102.2 L 85.1 99.8 L 85.1 98.8 L 30.6 44.2 L 31.2 43.9 L 37.5 45.9 L 41.8 47.9 L 51.5 55.1 L 133.5 135.1 L 147.5 149.6 Z M 18.2 149.6 L 10.1 149.2 L 60.1 99.5 L 64.2 94.6 L 65.2 94.6 L 73.6 102.8 L 34.2 142.9 L 26.5 147.6 L 18.2 149.6 Z M 100.8 130.1 L 97.2 127.4 L 96.2 127.4 L 96.2 126.6 L 95.0 126.9 L 89.5 122.9 L 76.8 110.4 L 75.5 110.9 L 76.1 109.5 L 78.5 107.4 L 100.8 130.1 Z" fill="#1c2b33" fill-rule="evenodd"/>
  <path d="M 91.8 94.4 L 51.5 55.1 L 41.8 47.9 L 37.5 45.9 L 30.5 44.1 L 17.6 30.8 L 30.0 31.1 L 36.0 33.1 L 43.5 37.4 L 90.6 83.0 L 90.4 84.0 L 92.4 86.0 L 90.6 85.8 L 89.4 88.8 L 89.8 90.4 L 87.5 88.6 L 87.1 89.2 L 91.8 94.4 Z" fill="#e85c26" fill-rule="evenodd"/>
  <path d="M 74.0 102.4 L 64.8 94.1 L 59.8 98.9 L 16.0 55.9 L 10.1 49.2 L 16.8 49.1 L 24.5 50.9 L 30.2 53.9 L 35.5 57.9 L 76.6 98.8 L 76.9 99.5 L 74.0 102.4 Z M 98.5 100.4 L 87.1 89.2 L 87.5 88.6 L 89.8 90.4 L 89.4 88.8 L 90.6 85.8 L 92.4 86.0 L 90.4 83.5 L 90.8 83.1 L 94.5 86.9 L 95.2 86.6 L 121.2 60.9 L 130.5 53.1 L 138.0 49.9 L 149.2 49.1 L 149.1 50.2 L 98.5 100.4 Z" fill="#f29a2e" fill-rule="evenodd"/>
  <path d="M 195.8 56.6 L 195.1 55.0 L 195.1 53.0 L 197.1 50.0 L 197.1 48.8 L 198.1 47.2 L 198.1 45.8 L 199.1 44.5 L 199.1 43.0 L 199.5 42.9 L 200.4 44.2 L 201.1 48.2 L 200.6 48.2 L 200.0 46.9 L 198.6 50.5 L 197.6 51.2 L 197.6 52.0 L 196.4 54.0 L 196.4 55.8 L 195.8 56.6 Z M 140.2 167.9 L 129.8 167.6 L 128.0 166.6 L 126.2 166.6 L 125.0 165.6 L 124.0 165.6 L 119.0 162.6 L 116.5 160.6 L 79.2 123.9 L 78.2 123.9 L 39.2 162.6 L 34.2 165.6 L 33.5 165.6 L 32.0 166.6 L 30.2 166.6 L 28.2 167.6 L 17.5 167.9 L 17.4 167.5 L 57.0 129.1 L 76.0 109.4 L 76.1 110.0 L 75.4 110.8 L 76.8 110.4 L 79.8 113.9 L 89.5 122.9 L 93.5 125.9 L 94.5 126.1 L 95.0 126.9 L 96.2 126.6 L 96.2 127.4 L 97.2 127.4 L 100.0 130.1 L 100.8 130.1 L 100.9 129.8 L 94.6 123.5 L 94.8 123.1 L 133.2 160.9 L 139.2 166.1 L 140.6 167.5 L 140.2 167.9 Z" fill="#159a54" fill-rule="evenodd"/>
  <path d="M 208.2 67.1 L 203.2 66.6 L 199.2 64.1 L 195.9 59.8 L 194.6 55.5 L 194.0 54.9 L 193.2 54.9 L 190.5 57.9 L 188.0 59.6 L 183.8 61.6 L 180.2 61.9 L 179.2 62.4 L 176.0 62.4 L 171.8 61.6 L 169.0 60.6 L 164.2 57.6 L 159.9 52.5 L 157.9 48.2 L 156.9 43.2 L 156.9 39.8 L 157.9 34.8 L 159.9 30.5 L 162.1 27.5 L 166.2 23.9 L 170.2 21.9 L 174.0 20.9 L 181.2 20.9 L 187.2 22.9 L 191.5 25.9 L 193.8 28.1 L 194.5 28.1 L 195.9 24.8 L 195.9 23.5 L 196.9 22.5 L 197.6 20.8 L 200.5 17.9 L 204.0 16.1 L 205.5 15.9 L 209.0 15.9 L 211.2 16.4 L 211.6 16.8 L 211.4 17.5 L 208.6 20.0 L 205.9 24.5 L 204.9 28.2 L 203.9 29.8 L 203.9 31.0 L 202.9 32.2 L 201.6 37.0 L 199.9 40.5 L 199.9 42.0 L 201.9 46.2 L 202.1 48.0 L 202.9 49.0 L 202.9 50.2 L 205.9 57.5 L 205.9 58.5 L 208.1 62.5 L 211.6 66.0 L 211.0 66.9 L 208.2 67.1 Z M 178.9 52.8 L 182.0 51.9 L 183.8 50.9 L 186.9 47.8 L 188.9 43.2 L 189.1 41.2 L 186.9 35.5 L 183.2 31.9 L 181.2 30.9 L 179.5 30.6 L 173.8 30.9 L 170.5 32.9 L 167.9 36.0 L 166.9 38.2 L 166.6 40.2 L 166.9 44.8 L 167.9 47.2 L 171.0 50.6 L 173.2 51.9 L 175.2 52.1 L 176.5 52.9 L 178.9 52.8 Z M 195.9 56.5 L 196.4 55.8 L 196.4 54.0 L 197.6 52.0 L 197.6 51.2 L 198.6 50.5 L 200.0 46.9 L 200.6 48.2 L 201.1 48.2 L 200.4 44.2 L 199.5 42.9 L 199.1 43.0 L 199.1 44.5 L 198.1 45.8 L 198.1 47.2 L 197.1 48.8 L 197.1 50.0 L 195.1 53.0 L 195.4 56.2 L 195.9 56.5 Z M 33.5 152.1 L 33.1 152.0 L 69.5 115.9 L 69.1 116.8 L 57.1 129.0 L 33.5 152.1 Z M 20.8 168.4 L 17.2 168.4 L 16.9 167.5 L 25.8 159.1 L 25.9 159.5 L 17.4 167.5 L 17.5 167.9 L 28.2 167.6 L 29.5 166.9 L 32.0 166.6 L 33.5 165.6 L 34.2 165.6 L 40.5 161.6 L 51.1 151.2 L 40.8 161.9 L 34.8 165.9 L 29.0 167.9 L 20.8 168.4 Z" fill="#84c453" fill-rule="evenodd"/>
</svg>
